<svg width="98" height="150" viewBox="0 0 98 150" fill="none" xmlns="http://www.w3.org/2000/svg">
<path d="M90.4138 80.1022C101.436 70.0536 95.0724 68.1658 95.0724 59.0031C95.0724 24.9745 77.219 0 48.8623 0C20.5055 0 2.65216 24.9745 2.65216 59.0027C2.65216 68.1654 -3.71134 70.0532 7.31076 80.1017C22.6636 94.0993 75.061 94.0993 90.4138 80.1022Z" fill="#545465"/>
<path d="M95.0724 59.0027C95.0724 24.9745 77.219 0 48.8623 0C48.8564 0 48.8506 0 48.8448 0V90.5997C65.7881 90.6022 82.7347 87.103 90.4138 80.1017C101.436 70.0536 95.0724 68.1654 95.0724 59.0027Z" fill="#494857"/>
<path d="M97.7212 132.818V149.809H0.00334167V132.818C0.00334167 120.108 6.00807 109.027 15.7095 103.201C18.2335 101.68 21.0097 100.515 23.9976 99.7775C26.484 99.1561 29.1156 98.8286 31.8672 98.8286L48.8623 108.853L65.8574 98.8286C68.6089 98.8286 71.2406 99.1561 73.727 99.7775C76.7149 100.515 79.4915 101.68 82.015 103.201C91.7161 109.027 97.7212 120.108 97.7212 132.818Z" fill="#F3D8B6"/>
<path d="M82.0151 103.2C79.4911 101.679 76.7149 100.515 73.727 99.7769C71.2406 99.155 68.6089 98.828 65.8574 98.828L48.8623 108.852L48.8448 108.842V149.809H97.7208V132.818C97.7212 120.108 91.7161 109.027 82.0151 103.2Z" fill="#EEC8A2"/>
<path d="M97.7246 132.819V135.312H63.9023C63.9023 135.312 79.4936 101.678 82.0205 103.202C91.7186 109.029 97.7246 120.109 97.7246 132.819Z" fill="#C85279"/>
<path d="M0 132.819V135.312H33.8223C33.8223 135.312 18.2309 101.678 15.7041 103.202C6.00598 109.029 0 120.109 0 132.819Z" fill="#FF628B"/>
<path d="M60.6942 75.4954H49.4658H48.9412H48.7829H48.2583H37.0299C37.0299 106.633 21.8145 103.816 21.8145 103.816C21.8145 123.6 43.1829 129.875 48.2579 131.719V132.36C48.2579 132.36 48.4805 132.315 48.8619 132.211C49.2428 132.315 49.4658 132.36 49.4658 132.36V131.719C54.5408 129.875 75.9092 123.6 75.9092 103.816C75.9092 103.816 60.6942 106.632 60.6942 75.4954Z" fill="#F3D8B6"/>
<path d="M60.6942 75.495H49.4658H48.9412H48.8447V132.215C48.851 132.214 48.8556 132.212 48.8623 132.211C49.2432 132.315 49.4662 132.361 49.4662 132.361V131.719C54.5412 129.875 75.9097 123.6 75.9097 103.816C75.9097 103.816 60.6942 106.633 60.6942 75.495Z" fill="#EEC8A2"/>
<path d="M22.0972 50.5061C22.4481 59.764 23.9141 68.136 25.6173 71.2806C29.3938 78.2531 37.8218 87.5511 48.8631 87.5511C59.9023 87.5511 68.3291 78.2531 72.1069 71.2806C73.8097 68.1365 75.2761 59.7644 75.6273 50.5061H22.0972Z" fill="#F3DBC4"/>
<path d="M48.8448 50.5058V87.5503C48.851 87.5503 48.8569 87.5507 48.8627 87.5507C59.9019 87.5507 68.3287 78.2528 72.1064 71.2799C73.8093 68.1357 75.2757 59.7637 75.6269 50.5054L48.8448 50.5058Z" fill="#EDCEAE"/>
<path d="M0 132.819V135.312H33.8223C33.8223 135.312 18.2309 101.678 15.7041 103.202C6.00598 109.029 0 120.109 0 132.819Z" fill="#FF628B"/>
<path d="M76.2083 115.334H21.5163L15.4493 135.521V150H82.2753V135.521L76.2083 115.334Z" fill="#FF628B"/>
<path d="M97.7246 132.819V135.312H63.9023C63.9023 135.312 79.4936 101.678 82.0205 103.202C91.7186 109.029 97.7246 120.109 97.7246 132.819Z" fill="#C85279"/>
<path d="M76.2083 115.334H48.8448V150H82.2753V135.521L76.2083 115.334Z" fill="#C85279"/>
<path d="M48.8623 143.456C50.823 143.456 52.4124 141.866 52.4124 139.905C52.4124 137.945 50.823 136.355 48.8623 136.355C46.9016 136.355 45.3122 137.945 45.3122 139.905C45.3122 141.866 46.9016 143.456 48.8623 143.456Z" fill="white"/>
<path d="M48.8623 136.355C48.8564 136.355 48.8506 136.356 48.8448 136.356V143.455C48.8506 143.455 48.8564 143.456 48.8623 143.456C50.8228 143.456 52.4124 141.866 52.4124 139.905C52.4124 137.945 50.8228 136.355 48.8623 136.355Z" fill="#DEDDE0"/>
<path d="M48.8623 128.67C50.823 128.67 52.4124 127.08 52.4124 125.119C52.4124 123.159 50.823 121.569 48.8623 121.569C46.9016 121.569 45.3122 123.159 45.3122 125.119C45.3122 127.08 46.9016 128.67 48.8623 128.67Z" fill="white"/>
<path d="M48.8623 121.569C48.8564 121.569 48.8506 121.57 48.8448 121.57V128.669C48.8506 128.669 48.8564 128.67 48.8623 128.67C50.8228 128.67 52.4124 127.08 52.4124 125.119C52.4124 123.159 50.8228 121.569 48.8623 121.569Z" fill="#DEDDE0"/>
</svg>
